<svg width="140" height="18" viewBox="0 0 140 18" fill="none" xmlns="http://www.w3.org/2000/svg">
<path d="M3.10352 5.37695L3.2002 6.67676C4.02376 5.66699 5.13737 5.16211 6.54102 5.16211C8.03776 5.16211 9.06543 5.75293 9.62402 6.93457C10.4404 5.75293 11.6042 5.16211 13.1152 5.16211C14.3757 5.16211 15.3138 5.53092 15.9297 6.26855C16.5456 6.99902 16.8535 8.10189 16.8535 9.57715V17H13.7383V9.58789C13.7383 8.92904 13.6094 8.44922 13.3516 8.14844C13.0938 7.84049 12.639 7.68652 11.9873 7.68652C11.0563 7.68652 10.4118 8.13053 10.0537 9.01855L10.0645 17H6.95996V9.59863C6.95996 8.92546 6.82747 8.43848 6.5625 8.1377C6.29753 7.83691 5.84635 7.68652 5.20898 7.68652C4.32812 7.68652 3.69076 8.05176 3.29688 8.78223V17H0.192383V5.37695H3.10352ZM18.7656 11.0811C18.7656 9.92806 18.9876 8.90039 19.4316 7.99805C19.8757 7.0957 20.513 6.39746 21.3438 5.90332C22.1816 5.40918 23.152 5.16211 24.2549 5.16211C25.8232 5.16211 27.1016 5.64193 28.0898 6.60156C29.0853 7.5612 29.6403 8.86458 29.7549 10.5117L29.7764 11.3066C29.7764 13.0898 29.2786 14.5221 28.2832 15.6035C27.2878 16.6777 25.9521 17.2148 24.2764 17.2148C22.6006 17.2148 21.2614 16.6777 20.2588 15.6035C19.2633 14.5293 18.7656 13.0684 18.7656 11.2207V11.0811ZM21.8701 11.3066C21.8701 12.4095 22.0778 13.2546 22.4932 13.8418C22.9085 14.4219 23.5029 14.7119 24.2764 14.7119C25.0283 14.7119 25.6156 14.4255 26.0381 13.8525C26.4606 13.2725 26.6719 12.3486 26.6719 11.0811C26.6719 9.99967 26.4606 9.16178 26.0381 8.56738C25.6156 7.97298 25.0212 7.67578 24.2549 7.67578C23.4958 7.67578 22.9085 7.97298 22.4932 8.56738C22.0778 9.15462 21.8701 10.0677 21.8701 11.3066ZM34.5459 5.37695L34.6426 6.71973C35.4733 5.68132 36.5869 5.16211 37.9834 5.16211C39.2152 5.16211 40.1318 5.52376 40.7334 6.24707C41.335 6.97038 41.6429 8.05176 41.6572 9.49121V17H38.5527V9.56641C38.5527 8.90755 38.4095 8.43132 38.123 8.1377C37.8366 7.83691 37.3604 7.68652 36.6943 7.68652C35.8206 7.68652 35.1654 8.05892 34.7285 8.80371V17H31.624V5.37695H34.5459ZM50.3154 13.7881C50.3154 13.4085 50.1257 13.1113 49.7461 12.8965C49.3737 12.6745 48.7721 12.4775 47.9414 12.3057C45.1771 11.7256 43.7949 10.5511 43.7949 8.78223C43.7949 7.75098 44.221 6.8916 45.0732 6.2041C45.9326 5.50944 47.0534 5.16211 48.4355 5.16211C49.9108 5.16211 51.0889 5.50944 51.9697 6.2041C52.8577 6.89876 53.3018 7.80111 53.3018 8.91113H50.1973C50.1973 8.46712 50.054 8.10189 49.7676 7.81543C49.4811 7.52181 49.0335 7.375 48.4248 7.375C47.902 7.375 47.4974 7.49316 47.2109 7.72949C46.9245 7.96582 46.7812 8.2666 46.7812 8.63184C46.7812 8.97559 46.9424 9.25488 47.2646 9.46973C47.5941 9.67741 48.1455 9.86003 48.9189 10.0176C49.6924 10.168 50.3441 10.3398 50.874 10.5332C52.514 11.1348 53.334 12.1768 53.334 13.6592C53.334 14.7191 52.8792 15.5785 51.9697 16.2373C51.0602 16.889 49.8857 17.2148 48.4463 17.2148C47.4723 17.2148 46.6058 17.043 45.8467 16.6992C45.0947 16.3483 44.5039 15.8721 44.0742 15.2705C43.6445 14.6618 43.4297 14.0065 43.4297 13.3047H46.373C46.4017 13.8561 46.6058 14.2786 46.9854 14.5723C47.3649 14.8659 47.8734 15.0127 48.5107 15.0127C49.1051 15.0127 49.5527 14.9017 49.8535 14.6797C50.1615 14.4505 50.3154 14.1533 50.3154 13.7881ZM59.0596 2.51953V5.37695H61.0469V7.6543H59.0596V13.4551C59.0596 13.8848 59.1419 14.1927 59.3066 14.3789C59.4714 14.5651 59.7865 14.6582 60.252 14.6582C60.5957 14.6582 60.9001 14.6331 61.165 14.583V16.9355C60.5563 17.1217 59.9297 17.2148 59.2852 17.2148C57.1081 17.2148 55.998 16.1156 55.9551 13.917V7.6543H54.2578V5.37695H55.9551V2.51953H59.0596ZM68.126 17.2148C66.4215 17.2148 65.0322 16.6921 63.958 15.6465C62.891 14.6009 62.3574 13.208 62.3574 11.4678V11.167C62.3574 9.99967 62.583 8.95768 63.0342 8.04102C63.4854 7.11719 64.1227 6.4082 64.9463 5.91406C65.777 5.41276 66.7223 5.16211 67.7822 5.16211C69.3721 5.16211 70.6217 5.66341 71.5312 6.66602C72.4479 7.66862 72.9062 9.09017 72.9062 10.9307V12.1982H65.5049C65.6051 12.9574 65.9059 13.5661 66.4072 14.0244C66.9157 14.4827 67.5566 14.7119 68.3301 14.7119C69.526 14.7119 70.4606 14.2786 71.1338 13.4121L72.6592 15.1201C72.1937 15.779 71.5635 16.2946 70.7686 16.667C69.9736 17.0322 69.0928 17.2148 68.126 17.2148ZM67.7715 7.67578C67.1556 7.67578 66.6543 7.88346 66.2676 8.29883C65.888 8.71419 65.6445 9.30859 65.5371 10.082H69.8555V9.83496C69.8411 9.14746 69.6549 8.61751 69.2969 8.24512C68.9388 7.86556 68.4303 7.67578 67.7715 7.67578ZM81.21 8.28809C80.7874 8.23079 80.415 8.20215 80.0928 8.20215C78.9183 8.20215 78.1484 8.59961 77.7832 9.39453V17H74.6787V5.37695H77.6113L77.6973 6.7627C78.3203 5.69564 79.1833 5.16211 80.2861 5.16211C80.6299 5.16211 80.9521 5.20866 81.2529 5.30176L81.21 8.28809ZM90.8779 17C90.7347 16.5059 90.6631 15.7969 90.6631 14.873C90.2048 15.6178 89.5781 16.1943 88.7832 16.6025C87.9883 17.0107 87.0895 17.2148 86.0869 17.2148C85.0127 17.2148 84.1462 16.9248 83.4873 16.3447C82.8356 15.7575 82.5098 14.9948 82.5098 14.0566C82.5098 12.9896 82.9896 12.1374 83.9492 11.5C84.916 10.8555 86.1979 10.526 87.7949 10.5117H90.6631V8.81445C90.6631 7.84049 90.3551 7.08496 89.7393 6.54785C89.1305 6.01074 88.2568 5.74219 87.1182 5.74219C86.0583 5.74219 85.1738 6.01432 84.4648 6.55859C83.7559 7.10286 83.4014 7.77604 83.4014 8.57812L82.8213 8.55664C82.8213 7.61133 83.2367 6.80924 84.0674 6.15039C84.8981 5.49154 85.915 5.16211 87.1182 5.16211C88.3714 5.16211 89.3669 5.47721 90.1045 6.10742C90.8421 6.73047 91.2217 7.61133 91.2432 8.75V14.3037C91.2432 15.5785 91.3434 16.445 91.5439 16.9033V17H90.8779ZM86.0869 16.6455C87.1755 16.6455 88.11 16.402 88.8906 15.915C89.6784 15.4281 90.2692 14.7441 90.6631 13.8633V11.1025H87.9775C86.3161 11.1025 85.0449 11.432 84.1641 12.0908C83.4479 12.6279 83.0898 13.2975 83.0898 14.0996C83.0898 14.8086 83.3727 15.4102 83.9385 15.9043C84.5042 16.3984 85.2204 16.6455 86.0869 16.6455ZM94.4551 11.0703C94.4551 9.21549 94.8454 7.76888 95.626 6.73047C96.4066 5.6849 97.4772 5.16211 98.8379 5.16211C99.7116 5.16211 100.481 5.35905 101.147 5.75293C101.821 6.14681 102.365 6.73405 102.78 7.51465V0.5H103.36V17H102.78V15.1416C102.386 15.8005 101.846 16.3125 101.158 16.6777C100.471 17.0358 99.6901 17.2148 98.8164 17.2148C97.4701 17.2148 96.4066 16.6813 95.626 15.6143C94.8454 14.5472 94.4551 13.0827 94.4551 11.2207V11.0703ZM95.0566 11.2959C95.0566 12.943 95.3825 14.2464 96.0342 15.2061C96.6859 16.1585 97.6097 16.6348 98.8057 16.6348C99.7653 16.6348 100.585 16.4235 101.266 16.001C101.946 15.5713 102.451 14.9447 102.78 14.1211V8.6748C102.114 6.71973 100.797 5.74219 98.8271 5.74219C97.6383 5.74219 96.7109 6.21126 96.0449 7.14941C95.3861 8.08757 95.0566 9.46973 95.0566 11.2959ZM115.359 17H114.779V9.19043C114.772 8.02311 114.514 7.15658 114.006 6.59082C113.505 6.0179 112.702 5.73145 111.6 5.73145C110.325 5.73145 109.283 6.29362 108.474 7.41797C107.994 8.09115 107.675 8.83594 107.518 9.65234V17H106.927V5.37695H107.518V8.12695C107.911 7.18164 108.474 6.45117 109.204 5.93555C109.935 5.41992 110.744 5.16211 111.632 5.16211C112.606 5.16211 113.401 5.37695 114.017 5.80664C114.64 6.23633 115.048 6.93815 115.241 7.91211C115.585 7.07422 116.144 6.4082 116.917 5.91406C117.69 5.41276 118.557 5.16211 119.517 5.16211C120.77 5.16211 121.701 5.5166 122.31 6.22559C122.925 6.93457 123.237 7.99805 123.244 9.41602V17H122.664V9.45898C122.664 8.18424 122.406 7.24251 121.891 6.63379C121.382 6.0179 120.58 5.71712 119.484 5.73145C118.074 5.75293 116.956 6.3151 116.133 7.41797C115.66 8.05534 115.402 8.67122 115.359 9.26562V17ZM127.487 17H126.907V5.37695H127.487V17ZM126.606 1.74609C126.606 1.58138 126.664 1.44173 126.778 1.32715C126.893 1.2054 127.033 1.14453 127.197 1.14453C127.362 1.14453 127.502 1.2054 127.616 1.32715C127.738 1.44173 127.799 1.58138 127.799 1.74609C127.799 1.91081 127.738 2.05046 127.616 2.16504C127.502 2.27962 127.362 2.33691 127.197 2.33691C127.033 2.33691 126.893 2.27962 126.778 2.16504C126.664 2.05046 126.606 1.91081 126.606 1.74609ZM131.881 8.08398C132.26 7.18164 132.819 6.46908 133.557 5.94629C134.294 5.4235 135.111 5.16211 136.006 5.16211C137.252 5.16211 138.176 5.5166 138.777 6.22559C139.386 6.92741 139.694 7.99089 139.701 9.41602V17H139.121V9.39453C139.114 8.14844 138.86 7.22819 138.358 6.63379C137.857 6.03223 137.062 5.73145 135.974 5.73145C134.971 5.73145 134.101 6.08952 133.363 6.80566C132.633 7.51465 132.139 8.43132 131.881 9.55566V17H131.301V5.37695H131.881V8.08398Z" fill="#525C65"/>
</svg>
